<?xml version="1.0" encoding="utf-8"?>
<!-- Generator: Adobe Illustrator 16.0.0, SVG Export Plug-In . SVG Version: 6.00 Build 0)  -->
<!DOCTYPE svg PUBLIC "-//W3C//DTD SVG 1.1//EN" "http://www.w3.org/Graphics/SVG/1.1/DTD/svg11.dtd">
<svg version="1.1" id="Layer_1" xmlns="http://www.w3.org/2000/svg" xmlns:xlink="http://www.w3.org/1999/xlink" x="0px" y="0px"
	 width="381.615px" height="148.502px" viewBox="0 0 381.615 148.502" enable-background="new 0 0 381.615 148.502"
	 xml:space="preserve">
<path d="M20.536,110.142c-5.934,0.736-10.585,0.251-13.956-1.456c-3.373-1.704-5.445-4.287-6.219-7.746
	c-0.775-3.459-0.302-7.614,1.418-12.47c1.718-4.854,4.659-10.006,8.823-15.461c4.162-5.452,9.521-11.03,16.072-16.73
	c6.552-5.699,14.25-11.12,23.092-16.266c5.521-3.251,11.235-6.156,17.14-8.715c5.903-2.558,11.714-4.685,17.429-6.381
	c5.715-1.694,11.191-2.917,16.432-3.665c5.24-0.747,10.004-0.944,14.296-0.586c4.289,0.357,7.986,1.306,11.091,2.847
	c3.104,1.541,5.329,3.76,6.676,6.653c0.944,2.056,1.066,4.237,0.366,6.546c-0.702,2.309-1.946,4.611-3.735,6.906
	c-1.79,2.296-3.984,4.519-6.581,6.667c-2.598,2.15-5.317,4.116-8.156,5.898c-2.841,1.785-5.687,3.323-8.538,4.614
	c-2.854,1.293-5.385,2.173-7.597,2.644c-4.024,0.995-7.273,1.075-9.746,0.245c-2.473-0.827-4.037-1.893-4.691-3.196
	c1.821-0.423,4.264-1.243,7.323-2.463c3.057-1.216,6.336-2.659,9.833-4.329c3.496-1.667,6.943-3.526,10.343-5.577
	c3.398-2.05,6.324-4.14,8.777-6.272c2.451-2.129,4.239-4.228,5.367-6.294c1.126-2.065,1.082-4.008-0.13-5.834
	c-0.973-1.458-2.732-2.328-5.285-2.604c-2.552-0.276-5.617-0.093-9.189,0.546c-3.575,0.643-7.588,1.732-12.038,3.27
	c-4.451,1.539-9.118,3.328-13.999,5.363c-4.884,2.038-9.863,4.284-14.94,6.739c-5.079,2.458-10.021,5.019-14.823,7.688
	c-7.857,4.332-14.795,8.92-20.81,13.762c-6.017,4.844-11.012,9.562-14.984,14.15c-3.975,4.591-6.902,8.854-8.784,12.79
	c-1.883,3.936-2.734,7.227-2.554,9.871c0.179,2.644,1.435,4.414,3.768,5.31s5.821,0.563,10.467-1.001
	c0.707-1.469,1.678-3.588,2.915-6.36c1.235-2.769,2.458-5.66,3.665-8.675c1.206-3.013,2.295-5.987,3.265-8.922
	c0.97-2.934,1.632-5.361,1.986-7.282c0.136-1.299,0.794-2.147,1.981-2.542c1.185-0.392,2.418-0.396,3.701-0.014
	c1.281,0.385,2.449,1.055,3.508,2.009c1.056,0.958,1.625,2.169,1.71,3.64c-0.078,3.367-0.853,6.871-2.327,10.509
	c-1.475,3.64-3.254,7.416-5.336,11.326c2.151-0.956,4.264-2.232,6.34-3.822c2.073-1.59,4.067-3.219,5.985-4.889
	c1.916-1.667,3.741-3.278,5.476-4.826c1.733-1.548,3.282-2.8,4.645-3.76c0.911-0.606,2.297-0.975,4.158-1.108
	c1.858-0.131,3.578,0.001,5.159,0.397c1.579,0.397,2.7,1.073,3.362,2.028c0.659,0.955,0.303,2.258-1.071,3.91
	c-2.179,2.343-4.699,4.508-7.564,6.491c-2.865,1.985-5.902,3.769-9.113,5.351c-3.211,1.583-6.519,2.981-9.924,4.192
	c-3.404,1.213-6.688,2.212-9.849,2.998c-1.109,2.211-2.396,4.988-3.856,8.329c-1.462,3.342-2.948,6.686-4.46,10.032
	c-1.511,3.349-2.934,6.413-4.267,9.193c-1.336,2.781-2.385,4.666-3.152,5.649c-1.632,1.98-3.397,3.654-5.302,5.026
	c-1.904,1.37-3.653,2.401-5.245,3.095c-1.595,0.689-2.84,0.992-3.739,0.907c-0.899-0.088-1.155-0.55-0.764-1.387
	c0.706-1.472,1.834-3.907,3.391-7.308c1.552-3.402,3.15-7.033,4.797-10.889c1.645-3.856,3.215-7.532,4.707-11.027
	C18.765,114.386,19.853,111.808,20.536,110.142z"/>
<path d="M125.897,81.831c1.204-1.432,2.26-1.884,3.165-1.355c0.903,0.532,0.778,1.707-0.378,3.528
	c-0.671,0.972-1.58,2.395-2.73,4.264c-1.152,1.872-2.347,3.771-3.589,5.703c-1.241,1.932-2.508,3.669-3.798,5.21
	c-1.29,1.544-2.411,2.472-3.358,2.786c-1.229,0.449-3.028,0.476-5.396,0.077c-2.37-0.396-4.466-1.174-6.288-2.332
	c-1.157,1.032-2.267,2.035-3.331,3.005c-1.064,0.972-2.156,1.725-3.275,2.258c-1.047,0.328-2.366,0.441-3.957,0.342
	c-1.593-0.099-3.194-0.467-4.803-1.108c-1.611-0.638-3.07-1.471-4.382-2.494c-1.313-1.022-2.259-2.287-2.841-3.796
	c-0.593-1.604-0.424-3.625,0.508-6.062c0.935-2.435,2.147-4.784,3.646-7.043s3.101-4.258,4.811-6.002
	c1.71-1.743,3.093-2.728,4.151-2.959c0.667-0.18,1.526-0.237,2.571-0.17c1.045,0.07,2.108,0.283,3.189,0.642
	c1.082,0.362,2.078,0.831,2.989,1.408c0.909,0.579,1.566,1.287,1.967,2.125c1.216-1.335,2.317-2.013,3.302-2.038
	c0.802,0.1,1.659,0.239,2.571,0.422c0.911,0.183,1.756,0.426,2.533,0.723c0.778,0.3,1.444,0.71,2.004,1.233
	c0.559,0.523,0.83,1.133,0.819,1.824c0.097,0.78-0.164,1.872-0.778,3.281c-0.617,1.41-1.276,2.85-1.983,4.32
	c-0.706,1.471-1.285,2.777-1.736,3.918c-0.451,1.144-0.465,1.835-0.039,2.079c0.316,0.16,0.945-0.14,1.889-0.9
	c0.942-0.758,2.074-1.787,3.394-3.087c1.321-1.298,2.789-2.789,4.409-4.472C122.768,85.478,124.352,83.703,125.897,81.831z
	 M91.015,100.373c1.142,0.451,2.44-0.029,3.895-1.445c1.454-1.414,2.796-3.136,4.026-5.165c1.229-2.027,2.234-4.077,3.015-6.15
	c0.78-2.07,1.11-3.593,0.99-4.565c-0.499-0.828-1.211-0.985-2.133-0.477c-0.926,0.511-1.904,1.373-2.938,2.586
	c-1.035,1.216-2.064,2.676-3.087,4.382c-1.024,1.708-1.885,3.321-2.585,4.838c-0.7,1.52-1.2,2.866-1.499,4.037
	C90.4,99.586,90.503,100.24,91.015,100.373z"/>
<path d="M133.486,92.889c0.547,0.428,1.289,0.236,2.226-0.571c0.937-0.806,1.923-1.817,2.957-3.033
	c1.034-1.214,2.007-2.52,2.922-3.917c0.912-1.395,1.654-2.575,2.228-3.535c-0.328-1.044-0.362-2.125-0.105-3.246
	c0.255-1.117,0.718-2.163,1.39-3.134c0.668-0.972,1.526-1.819,2.572-2.541c1.045-0.721,2.147-1.203,3.303-1.446
	c1.068-0.132,2.291-0.036,3.664,0.287c1.374,0.325,2.222,1.009,2.551,2.054c0.4,0.839,0.477,1.867,0.233,3.082
	c-0.245,1.215-0.684,2.455-1.316,3.719c1.615,0.295,3.133,0.181,4.55-0.342c1.416-0.52,2.865-1.563,4.352-3.131
	c0.536-0.459,1.08-0.849,1.633-1.166c0.554-0.313,1.005-0.443,1.359-0.39c0.352,0.056,0.55,0.254,0.592,0.593
	c0.042,0.342-0.192,0.838-0.704,1.495c-1.022,1.311-2.078,2.553-3.167,3.725c-1.091,1.172-2.2,2.175-3.331,3.005
	c-1.133,0.832-2.36,1.477-3.686,1.938c-1.326,0.461-2.741,0.587-4.248,0.378c-1.67,2.48-3.54,4.908-5.615,7.287
	c-2.074,2.382-4.014,3.881-5.812,4.498c-1.715,0.508-3.59,0.519-5.625,0.03c-2.038-0.488-3.938-1.29-5.705-2.404
	c-1.767-1.114-3.267-2.458-4.499-4.034c-1.231-1.575-1.95-3.188-2.155-4.843c-0.156-1.263,0.376-3.75,1.595-7.457
	c1.219-3.706,2.901-8.062,5.046-13.067c2.144-5.006,4.69-10.357,7.639-16.056c2.947-5.697,6.033-11.09,9.253-16.181
	c3.221-5.088,6.537-9.598,9.952-13.527c3.413-3.927,6.659-6.625,9.735-8.094c1.021-0.52,2.39-0.837,4.104-0.953
	c1.713-0.113,3.431-0.004,5.151,0.325c1.72,0.331,3.248,0.931,4.592,1.801c1.342,0.871,2.099,1.987,2.267,3.348
	c0.193,1.557-0.372,3.775-1.692,6.653c-1.324,2.881-3.19,6.149-5.6,9.804c-2.412,3.657-5.208,7.584-8.392,11.778
	c-3.183,4.197-6.537,8.415-10.06,12.652c-3.525,4.24-7.117,8.314-10.78,12.223c-3.663,3.912-7.133,7.401-10.404,10.473
	c-0.95,1.895-1.719,3.67-2.304,5.321c-0.512,1.448-0.889,2.802-1.125,4.064C132.785,91.619,132.938,92.464,133.486,92.889z
	 M176.031,19.036c-0.449-0.437-1.288-0.037-2.518,1.201c-1.23,1.241-2.731,3.056-4.509,5.447c-1.777,2.394-3.729,5.179-5.854,8.354
	c-2.124,3.177-4.265,6.431-6.419,9.757c-5.042,7.934-10.624,17.069-16.749,27.405c1.143-1.128,2.926-3.078,5.348-5.847
	c2.421-2.768,5.084-5.986,7.988-9.655c2.901-3.667,5.835-7.486,8.801-11.459c2.963-3.97,5.586-7.702,7.87-11.195
	c2.283-3.491,4.029-6.521,5.243-9.093C176.445,21.38,176.711,19.744,176.031,19.036z"/>
<path d="M171.138,74.004c0.436,0.342,1.04,0.441,1.813,0.294c0.771-0.144,1.553-0.415,2.344-0.809
	c0.789-0.394,1.526-0.83,2.208-1.31c0.681-0.478,1.149-0.883,1.405-1.211c0.146-0.412,0.632-0.671,1.459-0.773
	c0.825-0.103,1.699-0.037,2.616,0.194c0.918,0.234,1.78,0.62,2.588,1.161c0.808,0.543,1.362,1.238,1.666,2.089
	c0.193,0.768-0.034,1.93-0.678,3.491c-0.647,1.562-1.345,3.106-2.093,4.629c-0.751,1.526-1.302,2.853-1.655,3.982
	c-0.354,1.132-0.143,1.647,0.637,1.551c0.777-0.096,1.851-0.796,3.221-2.102c1.368-1.304,2.788-2.79,4.263-4.454
	c1.471-1.664,2.847-3.315,4.126-4.955c1.277-1.639,2.214-2.841,2.812-3.607c1.303-1.443,2.481-2.085,3.539-1.92
	c1.058,0.165,1.062,1.202,0.016,3.109c-0.477,0.947-1.22,2.324-2.229,4.126c-1.013,1.806-2.181,3.729-3.507,5.768
	c-1.328,2.042-2.764,3.997-4.31,5.866c-1.546,1.872-3.151,3.256-4.818,4.152c-0.743,0.389-1.837,0.524-3.282,0.407
	c-1.447-0.117-2.941-0.425-4.484-0.925c-1.543-0.499-2.92-1.242-4.127-2.229c-1.21-0.984-1.855-2.214-1.938-3.685
	c-0.156-1.263-0.007-2.64,0.451-4.129c0.457-1.487,0.972-3.106,1.547-4.857c-1.69,0.705-3.485,0.975-5.38,0.814
	c-1.896-0.159-3.488-0.653-4.775-1.482c-1.288-0.827-2.114-1.934-2.485-3.321c-0.368-1.384,0.073-2.995,1.327-4.83
	c1.326-2.039,2.73-3.25,4.216-3.633c1.482-0.38,2.714-0.211,3.691,0.505c0.978,0.719,1.535,1.835,1.674,3.347
	C173.131,70.771,172.512,72.353,171.138,74.004z"/>
<path d="M221.483,70.284c1.728-1.991,3.12-2.705,4.178-2.146c1.055,0.561,0.843,2.02-0.644,4.375
	c-0.986,1.604-2.207,3.31-3.661,5.12c-1.456,1.81-2.947,3.526-4.472,5.146c-1.528,1.622-2.958,3.033-4.29,4.235
	c-1.333,1.202-2.376,1.949-3.13,2.239c-1.059,0.231-2.322,0.191-3.792-0.123c-1.471-0.311-2.922-0.872-4.355-1.682
	c-1.435-0.809-2.652-1.868-3.652-3.177c-1-1.306-1.513-2.849-1.536-4.624c-0.009-1.677,0.227-3.558,0.708-5.643
	c0.483-2.083,1.106-4.012,1.875-5.788c0.767-1.772,1.572-3.253,2.412-4.446c0.839-1.189,1.653-1.783,2.445-1.785
	c0.703,0.112,1.466,0.289,2.287,0.532c0.819,0.246,1.572,0.545,2.26,0.905c0.687,0.359,1.26,0.806,1.723,1.342
	c0.459,0.536,0.689,1.198,0.689,1.988c-0.001,0.792-0.297,1.988-0.888,3.591c-0.593,1.605-1.18,3.233-1.765,4.885
	c-0.587,1.653-1.091,3.148-1.518,4.483c-0.427,1.338-0.43,2.127-0.003,2.371c0.316,0.16,1.005-0.05,2.069-0.626
	c1.063-0.577,2.295-1.396,3.695-2.458c1.398-1.062,2.918-2.335,4.563-3.823C218.324,73.689,219.925,72.059,221.483,70.284z"/>
<g>
	<path fill="#DB3826" d="M214.169,56.675c-0.584,0.072-1.332,0.017-2.243-0.167s-1.762-0.472-2.552-0.869
		c-0.79-0.395-1.442-0.881-1.958-1.461c-0.517-0.577-0.769-1.212-0.755-1.906c0.024-0.595,0.195-1.406,0.514-2.434
		c0.316-1.025,0.71-2.037,1.179-3.035c0.469-0.995,1.026-1.879,1.671-2.651c0.646-0.77,1.296-1.295,1.953-1.576
		c0.667-0.179,1.51-0.161,2.525,0.058c1.014,0.222,1.999,0.593,2.952,1.116c0.954,0.525,1.742,1.117,2.368,1.78
		c0.624,0.663,0.918,1.245,0.883,1.742c0.072,0.583-0.126,1.374-0.595,2.37c-0.469,0.998-1.039,1.98-1.708,2.952
		c-0.672,0.973-1.399,1.854-2.191,2.642C215.421,56.026,214.74,56.506,214.169,56.675z"/>
</g>
<path d="M255.787,62.627c-0.038,0.5-0.492,1.024-1.359,1.576c-0.872,0.552-2.008,1.137-3.412,1.756
	c-1.405,0.618-2.977,1.283-4.716,1.992c-1.74,0.71-3.539,1.526-5.399,2.446c-0.355,1.132-0.635,2.252-0.843,3.363
	c-0.21,1.114-0.021,2.028,0.563,2.745c0.255,0.464,1.432,0.193,3.529-0.808s4.41-2.25,6.941-3.749
	c2.529-1.499,4.963-2.985,7.298-4.459c2.336-1.474,3.855-2.552,4.563-3.231c1.593-1.48,2.927-2.263,4.004-2.348
	c1.075-0.083,1.06,0.98-0.049,3.19c-0.754,1.082-1.986,2.494-3.696,4.235c-1.709,1.744-3.612,3.535-5.704,5.373
	c-2.093,1.839-4.173,3.579-6.241,5.217c-2.069,1.64-3.789,2.891-5.164,3.75c-1.374,0.863-2.812,1.214-4.313,1.053
	c-1.501-0.158-2.911-0.576-4.229-1.252c-1.319-0.674-2.469-1.398-3.453-2.165s-1.604-1.379-1.857-1.843
	c-0.34-0.351-0.517-0.774-0.527-1.268c-0.013-0.491,0-0.986,0.038-1.486c-1.521,1.276-2.791,2.79-3.807,4.545
	c-1.019,1.756-1.69,3.69-2.021,5.806c-0.608,0.667-1.355,1.008-2.243,1.018c-0.888,0.013-1.773-0.174-2.662-0.559
	c-0.885-0.383-1.642-0.908-2.268-1.571c-0.624-0.664-0.98-1.334-1.065-2.016c-0.108-0.876,0.218-2.643,0.973-5.305
	c0.758-2.661,1.822-5.829,3.191-9.505c1.372-3.673,3.012-7.779,4.919-12.311c1.906-4.532,4.001-9.136,6.287-13.814
	c2.283-4.676,4.674-9.293,7.172-13.85c2.495-4.554,5.041-8.721,7.635-12.5c2.592-3.777,5.147-7.056,7.668-9.837
	c2.519-2.78,4.946-4.709,7.281-5.791c1.021-0.521,2.266-0.847,3.73-0.98c1.464-0.131,2.988,0.025,4.575,0.47
	c1.586,0.447,3.092,1.246,4.519,2.402c1.427,1.157,2.614,2.764,3.561,4.817c0.569,1.411,0.235,3.503-1,6.271
	c-1.238,2.771-3.115,5.941-5.636,9.512c-2.52,3.57-5.501,7.421-8.938,11.55c-3.44,4.129-7.072,8.282-10.898,12.46
	c-3.829,4.177-7.671,8.234-11.527,12.167c-3.859,3.936-7.425,7.438-10.696,10.509l-1.921,6.015c3.065-3.144,5.961-6.071,8.688-8.779
	c2.286-2.258,4.565-4.392,6.835-6.402c2.27-2.008,3.913-3.274,4.937-3.796c0.667-0.18,1.393-0.121,2.169,0.176
	c0.778,0.298,1.521,0.725,2.232,1.278c0.71,0.556,1.282,1.2,1.721,1.934C255.605,61.368,255.811,62.032,255.787,62.627z
	 M273.39,5.048c-0.45-0.438-1.331,0.017-2.646,1.364c-1.314,1.348-2.907,3.249-4.773,5.702c-1.87,2.454-3.909,5.324-6.118,8.608
	c-2.211,3.287-4.429,6.696-6.657,10.231c-5.199,8.249-11.039,17.712-17.516,28.388c1.142-1.127,2.942-3.154,5.395-6.075
	c2.452-2.919,5.171-6.27,8.161-10.047c2.987-3.776,6.05-7.76,9.183-11.951c3.135-4.188,5.906-8.112,8.319-11.77
	c2.41-3.655,4.268-6.799,5.571-9.43C273.611,7.441,273.972,5.768,273.39,5.048z"/>
<path d="M304.162,59.744c1.203-1.431,2.259-1.884,3.164-1.355c0.904,0.532,0.779,1.708-0.378,3.528
	c-0.671,0.972-1.58,2.395-2.729,4.263c-1.152,1.872-2.348,3.772-3.589,5.704c-1.243,1.931-2.508,3.668-3.799,5.21
	c-1.29,1.544-2.41,2.472-3.358,2.786c-1.229,0.449-3.028,0.475-5.397,0.077c-2.37-0.396-4.465-1.173-6.287-2.332
	c-1.156,1.032-2.266,2.035-3.331,3.005c-1.063,0.973-2.156,1.726-3.275,2.258c-1.046,0.329-2.366,0.441-3.957,0.342
	c-1.593-0.099-3.194-0.467-4.804-1.108c-1.61-0.638-3.069-1.471-4.381-2.494c-1.312-1.022-2.258-2.287-2.841-3.795
	c-0.593-1.604-0.424-3.625,0.508-6.062c0.935-2.435,2.148-4.784,3.646-7.043c1.498-2.259,3.101-4.258,4.812-6.002
	c1.71-1.742,3.091-2.728,4.151-2.958c0.666-0.18,1.525-0.238,2.57-0.171c1.046,0.07,2.108,0.283,3.19,0.642
	c1.082,0.361,2.077,0.831,2.988,1.407c0.91,0.579,1.566,1.287,1.967,2.126c1.216-1.335,2.317-2.014,3.302-2.039
	c0.802,0.1,1.66,0.239,2.571,0.422s1.756,0.426,2.533,0.723c0.777,0.3,1.444,0.71,2.005,1.233c0.558,0.523,0.83,1.133,0.817,1.824
	c0.097,0.779-0.163,1.872-0.778,3.28c-0.615,1.41-1.276,2.851-1.982,4.32c-0.706,1.471-1.286,2.776-1.736,3.917
	c-0.45,1.144-0.465,1.835-0.039,2.079c0.316,0.16,0.946-0.14,1.889-0.9c0.943-0.758,2.074-1.787,3.395-3.087
	c1.32-1.298,2.788-2.789,4.408-4.472C301.032,63.391,302.616,61.616,304.162,59.744z M269.28,78.287
	c1.141,0.451,2.44-0.029,3.894-1.446c1.455-1.414,2.797-3.135,4.025-5.165c1.231-2.027,2.235-4.077,3.016-6.151
	c0.78-2.07,1.11-3.593,0.989-4.565c-0.498-0.828-1.21-0.984-2.132-0.477c-0.925,0.511-1.903,1.373-2.939,2.586
	c-1.034,1.216-2.063,2.676-3.086,4.382c-1.024,1.707-1.884,3.32-2.585,4.837c-0.699,1.52-1.2,2.866-1.499,4.037
	C268.664,77.5,268.768,78.153,269.28,78.287z"/>
<path d="M344.042,54.063c0.607-0.668,1.224-1.063,1.852-1.192c0.626-0.126,1.126-0.065,1.504,0.184
	c0.376,0.25,0.576,0.669,0.602,1.258c0.021,0.589-0.259,1.317-0.842,2.178c-0.329,0.536-1.274,1.664-2.84,3.389
	c-1.563,1.726-3.555,3.995-5.969,6.813c-2.417,2.817-5.122,6.092-8.115,9.819c-2.996,3.729-6.099,7.768-9.313,12.115
	c-3.799,5.211-6.827,10.252-9.087,15.124c-2.262,4.872-4.085,9.269-5.475,13.195c-1.389,3.924-2.49,7.196-3.303,9.814
	c-0.81,2.619-1.63,4.177-2.457,4.675c-0.826,0.496-1.942,0.856-3.347,1.081c-1.402,0.223-2.711,0.236-3.921,0.041
	c-1.209-0.197-2.125-0.625-2.751-1.288c-0.624-0.663-0.585-1.73,0.122-3.2c0.573-0.959,1.612-3.113,3.125-6.46
	c1.511-3.349,3.333-7.374,5.465-12.083c2.133-4.708,4.471-9.937,7.019-15.682c2.546-5.745,5.232-11.558,8.059-17.44
	c-1.143,0.34-2.362,0.466-3.655,0.378c-1.296-0.084-2.541-0.374-3.737-0.87c-1.198-0.493-2.274-1.223-3.234-2.192
	c-0.957-0.967-1.676-2.162-2.147-3.585c-0.715-1.786-0.675-3.865,0.117-6.235c0.793-2.369,1.918-4.631,3.38-6.789
	c1.459-2.155,3.023-4.078,4.691-5.766c1.666-1.688,3.072-2.7,4.216-3.041c0.862-0.204,1.85-0.203,2.963,0.003
	c1.111,0.209,2.237,0.538,3.381,0.989c1.143,0.451,2.177,1.04,3.107,1.763c0.927,0.725,1.695,1.544,2.304,2.455
	c1.193-2.319,2.166-3.625,2.921-3.917c0.561-0.266,1.318-0.311,2.279-0.133c0.96,0.177,1.886,0.484,2.78,0.915
	c0.891,0.433,1.676,0.977,2.35,1.634s1.054,1.328,1.138,2.007c-0.002,0.791-0.535,2.065-1.6,3.827
	c-1.066,1.762-2.475,3.936-4.229,6.523c-1.753,2.587-3.679,5.566-5.78,8.937c-2.1,3.371-4.181,7.11-6.239,11.215
	c0.257-0.328,1.205-1.63,2.849-3.908c1.645-2.277,3.681-4.973,6.109-8.089c2.428-3.115,5.041-6.328,7.841-9.637
	C338.972,59.58,341.595,56.639,344.042,54.063z M323.179,57.833c0.146-0.411,0.092-0.849-0.162-1.313
	c-0.511-0.923-1.188-1.209-2.032-0.859c-0.845,0.353-1.743,1.082-2.692,2.186c-0.95,1.106-1.871,2.431-2.766,3.972
	c-0.896,1.544-1.67,3.073-2.322,4.583c-0.651,1.513-1.1,2.876-1.343,4.092c-0.245,1.215-0.148,1.995,0.289,2.333
	c0.546,0.428,1.394,0.101,2.544-0.981c1.148-1.08,2.326-2.337,3.532-3.771L323.179,57.833z"/>
<path d="M378.613,50.964c1.679-1.589,2.646-2.154,2.901-1.692c0.254,0.463,0.029,1.429-0.678,2.898
	c-0.694,1.567-1.724,3.423-3.088,5.567c-1.363,2.145-2.91,4.211-4.638,6.203c-1.729,1.992-3.579,3.801-5.548,5.428
	c-1.972,1.628-3.865,2.701-5.675,3.221c-1.24,0.353-2.932,0.24-5.077-0.333c-2.145-0.572-4.262-1.52-6.351-2.842
	c-2.09-1.32-3.895-2.925-5.41-4.811s-2.214-3.922-2.091-6.11c0.075-1.787,0.597-3.555,1.564-5.305
	c0.969-1.749,2.107-3.32,3.415-4.718c1.308-1.396,2.669-2.553,4.088-3.47c1.417-0.916,2.66-1.44,3.73-1.572
	c0.876-0.108,1.902,0.012,3.081,0.359c1.178,0.349,2.276,0.854,3.299,1.516c1.021,0.666,1.86,1.474,2.522,2.428
	c0.66,0.955,1.008,1.974,1.045,3.055c-0.063,1.096-0.639,2.426-1.727,3.991c-1.091,1.568-2.33,3.128-3.716,4.682
	c-1.558,1.774-3.401,3.631-5.531,5.573c2.21,0.319,5.555-0.786,10.031-3.317C369.239,59.188,373.855,55.604,378.613,50.964z
	 M361.057,50.325c-0.427-0.243-1.3,0.087-2.618,0.991c-1.321,0.904-2.589,2.023-3.805,3.36c-1.219,1.336-2.201,2.768-2.949,4.291
	c-0.751,1.525-0.821,2.745-0.214,3.655c0.548-0.364,1.412-1.16,2.592-2.395c1.181-1.232,2.349-2.562,3.505-3.989
	c1.156-1.426,2.109-2.706,2.857-3.835C361.174,51.273,361.385,50.581,361.057,50.325z"/>
</svg>
